# Blender v2.93.6 OBJ File: 'table_basse.blend'
# www.blender.org
mtllib table_basse.mtl
o Cube
v -3.750000 0.000000 1.500000
v -3.750000 3.000000 1.500000
v -3.750000 0.000000 -1.500000
v -3.750000 3.000000 -1.500000
v 3.750000 0.000000 1.500000
v 3.750000 3.000000 1.500000
v 3.750000 0.000000 -1.500000
v 3.750000 3.000000 -1.500000
v -3.562500 0.000000 -1.500000
v -3.562500 3.000000 -1.500000
v -3.562500 0.000000 1.500000
v -3.562500 3.000000 1.500000
v 3.567188 3.000000 -1.500000
v 3.567188 0.000000 1.500000
v 3.567188 0.000000 -1.500000
v 3.567188 3.000000 1.500000
v -3.750000 0.000000 1.500000
v -3.750000 1.000000 1.500000
v -3.750000 1.000000 -1.500000
v -3.750000 0.000000 -1.500000
v 3.750000 1.000000 -1.500000
v 3.750000 0.000000 -1.500000
v 3.750000 1.000000 1.500000
v 3.750000 0.000000 1.500000
v -3.562500 1.000000 1.500000
v -3.562500 1.000000 -1.500000
v 3.567188 1.000000 1.500000
v 3.567188 1.000000 -1.500000
v 3.567188 0.000000 -1.500000
v -3.750000 2.500000 1.500000
v -3.750000 2.500000 -1.500000
v 3.750000 2.500000 -1.500000
v 3.750000 2.500000 1.500000
v -3.562500 2.500000 1.500000
v -3.562500 2.500000 -1.500000
v 3.567188 2.500000 1.500000
v 3.567188 2.500000 -1.500000
v -3.750000 0.450000 1.500000
v -3.750000 0.450000 -1.500000
v 3.750000 0.450000 -1.500000
v 3.750000 0.450000 1.500000
v -3.562500 0.450000 -1.500000
v 3.567188 0.450000 -1.500000
v -3.750000 0.450000 1.500000
v 3.567188 1.000000 1.500000
v -3.562500 1.000000 1.500000
v -3.750000 1.000000 1.500000
vt 0.583333 0.000000
vt 0.625000 0.000000
vt 0.625000 0.250000
vt 0.583333 0.250000
vt 0.583333 0.493906
vt 0.625000 0.493906
vt 0.625000 0.500000
vt 0.583333 0.500000
vt 0.625000 0.750000
vt 0.583333 0.750000
vt 0.583333 0.993750
vt 0.625000 0.993750
vt 0.625000 1.000000
vt 0.583333 1.000000
vt 0.369751 0.536246
vt 0.374804 0.509768
vt 0.375000 0.750000
vt 0.368906 0.750000
vt 0.868750 0.500000
vt 0.875000 0.500000
vt 0.875000 0.750000
vt 0.868750 0.750000
vt 0.631094 0.500000
vt 0.631094 0.750000
vt 0.125000 0.500000
vt 0.131250 0.500000
vt 0.131250 0.750000
vt 0.125000 0.750000
vt 0.583333 0.756094
vt 0.625000 0.756094
vt 0.625000 0.256250
vt 0.583333 0.256250
vt 0.458333 0.993750
vt 0.458333 1.000000
vt 0.458333 1.000000
vt 0.458333 0.993750
vt 0.412500 0.256250
vt 0.458333 0.256250
vt 0.458333 0.493906
vt 0.412511 0.493615
vt 0.412500 0.250000
vt 0.458333 0.250000
vt 0.376467 0.509813
vt 0.375000 0.750000
vt 0.412720 0.506076
vt 0.458333 0.500000
vt 0.458333 0.750000
vt 0.412500 0.750000
vt 0.375000 0.493947
vt 0.375114 0.493933
vt 0.375000 0.000000
vt 0.375000 0.000000
vt 0.375000 0.250000
vt 0.375000 0.250000
vt 0.412500 0.000000
vt 0.458333 0.000000
vt 0.458333 0.756094
vt 0.000000 0.000000
vt 0.000000 0.000000
vt 0.000000 0.000000
vt 0.000000 0.000000
vt 0.000000 0.000000
vt 0.000000 0.000000
vt 0.000000 0.000000
vt 0.000000 0.000000
vt 0.000000 0.000000
vt 0.000000 0.000000
vt 0.000000 0.000000
vt 0.000000 0.000000
vt 0.000000 0.000000
vt 0.000000 0.000000
vt 0.000000 0.000000
vt 0.000000 0.000000
vt 0.000000 0.000000
vt 0.000000 0.000000
vt 0.000000 0.000000
vt 0.000000 0.000000
vt 0.000000 0.000000
vt 0.000000 0.000000
vt 0.000000 0.000000
vt 0.000000 0.000000
vt 0.000000 0.000000
vt 0.000000 0.000000
vt 0.000000 0.000000
vt 0.000000 0.000000
vt 0.412500 0.000000
vt 0.458333 0.000000
vt 0.000000 0.000000
vt 0.000000 0.000000
vt 0.000000 0.000000
vt 0.000000 0.000000
vt 0.000000 0.000000
vn -1.0000 0.0000 0.0000
vn 0.0000 0.0000 -1.0000
vn 1.0000 0.0000 0.0000
vn 0.0000 0.0000 1.0000
vn 0.0000 -1.0000 0.0000
vn 0.0000 1.0000 0.0000
vn 0.9829 0.1843 0.0000
vn -0.9837 0.1798 0.0000
vn -0.9927 0.1210 0.0000
vn -0.9923 -0.1240 0.0000
usemtl Material.001
s off
f 30/1/1 2/2/1 4/3/1 31/4/1
f 37/5/2 13/6/2 8/7/2 32/8/2
f 32/8/3 8/7/3 6/9/3 33/10/3
f 34/11/4 12/12/4 2/13/4 30/14/4
f 15/15/5 7/16/5 5/17/5 14/18/5
f 10/19/6 4/20/6 2/21/6 12/22/6
f 13/23/6 10/19/6 12/22/6 16/24/6
f 3/25/5 9/26/5 11/27/5 1/28/5
f 36/29/4 16/30/4 12/12/4 34/11/4
f 31/4/2 4/3/2 10/31/2 35/32/2
f 33/10/4 6/9/4 16/30/4 36/29/4
f 8/7/6 13/23/6 16/24/6 6/9/6
f 25/33/4 18/34/4 47/35/4 46/36/4
f 35/32/2 10/31/2 13/6/2 37/5/2
f 42/37/2 26/38/2 28/39/2 43/40/2
f 39/41/2 19/42/2 26/38/2 42/37/2
f 7/16/4 22/43/4 24/44/4 5/17/4
f 40/45/3 21/46/3 23/47/3 41/48/3
f 15/49/4 29/50/4 22/43/4 7/16/4
f 43/40/2 28/39/2 21/46/2 40/45/2
f 1/51/4 17/52/4 20/53/4 3/54/4
f 38/55/1 18/56/1 19/42/1 39/41/1
f 26/38/2 35/32/2 37/5/2 28/39/2
f 23/47/4 33/10/4 36/29/4 27/57/4
f 19/42/2 31/4/2 35/32/2 26/38/2
f 25/33/4 34/11/4 30/14/4 18/34/4
f 21/46/3 32/8/3 33/10/3 23/47/3
f 28/39/2 37/5/2 32/8/2 21/46/2
f 18/56/1 30/1/1 31/4/1 19/42/1
f 33/58/6 32/59/6 31/60/6 30/61/6 34/62/6 36/63/6
f 19/64/5 26/65/5 28/66/5 21/67/5 23/68/5 27/69/5 25/70/5 18/71/5
f 17/52/1 38/55/1 39/41/1 20/53/1
f 29/50/2 43/40/2 40/45/2 22/43/2
f 22/43/3 40/45/3 41/48/3 24/44/3
f 20/53/2 39/41/2 42/37/2 9/26/2 3/25/2
f 9/72/7 42/73/7 26/65/7 19/64/7 18/71/7 25/70/7 11/74/7
f 17/75/4 1/76/4 11/74/4 25/70/4 18/71/4 38/77/4
f 24/78/4 41/79/4 23/68/4 27/69/4 14/80/4 5/81/4
f 29/82/8 15/83/8 14/80/8 27/69/8 23/68/8 21/67/8 28/66/8
f 41/79/2 38/77/2 18/71/2 25/70/2 27/69/2 23/68/2
f 27/69/4 25/70/4 46/84/4 45/85/4
f 18/56/4 38/55/4 44/86/4 47/87/4
f 43/88/6 42/73/6 44/89/6 38/77/6 41/79/6 40/90/6
f 45/85/5 28/66/5 21/67/5 23/68/5 27/69/5
f 28/66/9 45/85/9 27/69/9 36/63/9 33/58/9 32/59/9 37/91/9
f 26/65/10 46/84/10 25/70/10 34/62/10 30/61/10 31/60/10 35/92/10
